<?xml version="1.0" encoding="UTF-8" standalone="no"?>
<svg width="215.9mm" height="202.142mm"
 viewBox="629.403 500.834 657.765 552.357"
 xmlns="http://www.w3.org/2000/svg" xmlns:xlink="http://www.w3.org/1999/xlink"  version="1.2" baseProfile="tiny">
<title>DihedralTesseWindow drawing</title>
<desc>Generated using DihedralTesseWindow</desc>
<defs>
</defs>
<g fill="none" stroke="black" stroke-width="1" fill-rule="evenodd" stroke-linecap="square" stroke-linejoin="bevel" >

<g fill="none" stroke="#000000" stroke-opacity="1" stroke-width="1" stroke-linecap="square" stroke-linejoin="bevel" transform="matrix(1,0,0,1,0,0)"
font-family="SimSun" font-size="9" font-weight="400" font-style="normal" 
>
</g>

<g fill="none" stroke="#000000" stroke-opacity="1" stroke-width="1" stroke-linecap="square" stroke-linejoin="bevel" transform="matrix(1,0,0,1,0,0)"
font-family="SimSun" font-size="9" font-weight="400" font-style="normal" 
>
</g>

<g fill="none" stroke="#000000" stroke-opacity="1" stroke-width="1" stroke-linecap="square" stroke-linejoin="bevel" transform="matrix(1.19888,0,0,1.19888,-831.825,-690.435)"
font-family="SimSun" font-size="9" font-weight="400" font-style="normal" 
>
</g>

<g fill="#000000" fill-opacity="1" stroke="#ff0000" stroke-opacity="1" stroke-width="1" stroke-linecap="round" stroke-linejoin="round" transform="matrix(1.19888,0,0,1.19888,-831.825,-690.435)"
font-family="SimSun" font-size="9" font-weight="400" font-style="normal" 
>
<path vector-effect="non-scaling-stroke" fill-rule="evenodd" d="M887.28,602.01 L878.539,603.444 L871.659,605.681 L865.138,606.942 L858.411,608.494 L850.391,609.529 L843.665,609.529 L835.386,609.27 L827.897,610.05 L820.715,610.848 L813.395,613.668 L810.29,618.584 L805.375,621.43 L800.201,624.534 L796.061,629.45 L791.922,634.624 L789.593,639.54 L787.006,646.266 L784.16,652.734 L782.608,657.391 L779.245,664.635 L776.658,669.033 L774.071,671.879 L771.742,675.501 L769.155,680.416 L764.24,685.073 L758.872,689.05 L753.632,694.646 L755.185,700.855 L758.548,706.288 L764.757,712.238 L770.19,715.86 L776.916,721.293 L784.16,727.243 L791.146,730.607 L796.32,735.005 L801.494,740.955 L806.669,747.941 L806.41,752.856 L804.34,758.807 L801.753,763.722 L797.194,763.685 L792.094,763.328 L785.93,762.3 L777.197,761.787 L769.492,766.41 L778.738,768.978 L785.93,771.546 L792.518,775.374 L800.312,780.793 L806.477,782.334 L815.209,786.443 L816.75,795.689 L816.75,804.422 L816.75,812.641 L817.017,823.485 L819.863,831.505 L822.191,838.749 L824.002,846.252 L827.107,853.237 L828.659,858.152 L829.694,863.585 L833.575,867.725 L837.197,870.829 L844.441,871.864 L851.685,873.417 L859.705,876.78 L864.103,883.248 L869.018,890.492 L872.899,897.218 L878.262,906.303 L880.907,912.652 L883.553,920.588 L884.611,927.466 L886.727,932.227 L887.785,939.634 L888.3,946.755 L894.134,943.867 L896.78,938.576 L898.367,933.286 L901.541,927.995 L904.187,921.646 L906.429,915.308 L907.908,908.278 L909.018,903.099 L911.978,897.179 L914.198,891.26 L917.158,885.71 L920.487,879.791 L924.927,874.981 L930.477,870.911 L937.136,867.212 L943.796,864.252 L949.715,860.552 L956.005,858.332 L962.294,856.112 L970.064,853.523 L977.093,851.673 L982.273,850.193 L989.302,849.453 L995.961,847.973 L1003.07,847.752 L1009.35,847.752 L1016.88,848.171 L1022.33,848.171 L1028.19,847.752 L1034.47,849.008 L1042.84,850.264 L1048.7,851.939 L1055.82,854.032 L1062.1,854.869 L1070.89,858.218 L1078.01,860.311 L1085.96,862.823 L1094.33,865.754 L1101.45,867.428 L1108.15,872.871 L1113.17,875.801 L1118.61,877.894 L1124.06,880.825 L1130.75,885.011 L1136.62,886.267 L1142.9,882.081 L1148.09,877.733 L1148.09,870.855 L1146.24,865.754 L1142.9,860.311 L1138.71,854.032 L1134.94,846.915 L1130.75,841.054 L1126.15,834.356 L1123.22,828.913 L1119.03,824.308 L1114.17,817.264 L1108.52,810.586 L1104.41,803.908 L1100.81,797.744 L1102.36,789.012 L1106.79,782.339 L1111.37,774.49 L1117.25,768.602 L1123.14,764.678 L1129.57,757.633 L1126.4,754.988 L1121.64,753.93 L1117.4,752.342 L1111.58,751.284 L1104.71,752.342 L1097.81,752.453 L1090.51,751.838 L1083.23,750.987 L1076.03,749.592 L1068.83,748.213 L1061.58,747.183 L1054.27,746.878 L1046.98,747.54 L1039.81,749.025 L1032.78,751.075 L1025.89,753.593 L1018.9,755.342 L1011.97,757.496 L1005.03,759.859 L998,761.947 L990.92,763.852 L981.96,766.098 L974.553,770.331 L967.675,772.976 L963.972,770.331 L959.21,766.098 L956.036,760.279 L956.036,753.401 L956.036,740.174 L948.629,734.354 L941.751,735.941 L936.46,738.057 L931.169,739.645 L925.285,739.203 L918.044,738.051 L910.762,737.229 L904.716,734.883 L897.309,732.767 L890.431,729.063 L887.785,725.36 L884.611,721.656 L882.495,715.836 L879.766,709.87 L879.273,702.554 L878.987,695.236 L879.548,687.948 L881.153,680.793 L882.792,673.65 L883.667,666.372 L882.844,659.085 L882.175,651.783 L881.777,644.462 L881.965,639.121 L882.495,631.714 L882.785,623.671 L885.237,617.132 L886.054,610.593 L887.28,602.01"/>
</g>

<g fill="none" stroke="#000000" stroke-opacity="1" stroke-width="1" stroke-linecap="square" stroke-linejoin="bevel" transform="matrix(1.19888,0,0,1.19888,-831.825,-690.435)"
font-family="SimSun" font-size="9" font-weight="400" font-style="normal" 
>
</g>

<g fill="none" stroke="#000000" stroke-opacity="1" stroke-width="1" stroke-linecap="square" stroke-linejoin="bevel" transform="matrix(1,0,0,1,0,0)"
font-family="SimSun" font-size="9" font-weight="400" font-style="normal" 
>
</g>
</g>
</svg>
