<?xml version="1.0" encoding="UTF-8" standalone="no"?>
<svg width="118.886mm" height="202.142mm"
 viewBox="780.006 657.633 568.374 560.088"
 xmlns="http://www.w3.org/2000/svg" xmlns:xlink="http://www.w3.org/1999/xlink"  version="1.2" baseProfile="tiny">
<title>DihedralTesseWindow drawing</title>
<desc>Generated using DihedralTesseWindow</desc>
<defs>
</defs>
<g fill="none" stroke="black" stroke-width="1" fill-rule="evenodd" stroke-linecap="square" stroke-linejoin="bevel" >

<g fill="none" stroke="#000000" stroke-opacity="1" stroke-width="1" stroke-linecap="square" stroke-linejoin="bevel" transform="matrix(1,0,0,1,0,0)"
font-family="SimSun" font-size="9" font-weight="400" font-style="normal" 
>
</g>

<g fill="none" stroke="#000000" stroke-opacity="1" stroke-width="1" stroke-linecap="square" stroke-linejoin="bevel" transform="matrix(1,0,0,1,0,0)"
font-family="SimSun" font-size="9" font-weight="400" font-style="normal" 
>
</g>

<g fill="none" stroke="#000000" stroke-opacity="1" stroke-width="1" stroke-linecap="square" stroke-linejoin="bevel" transform="matrix(0.584403,0,0,0.584403,-453.583,-261.914)"
font-family="SimSun" font-size="9" font-weight="400" font-style="normal" 
>
</g>

<g fill="#000000" fill-opacity="1" stroke="#ff0000" stroke-opacity="1" stroke-width="1" stroke-linecap="round" stroke-linejoin="round" transform="matrix(0.584403,0,0,0.584403,-453.583,-261.914)"
font-family="SimSun" font-size="9" font-weight="400" font-style="normal" 
>
<path vector-effect="non-scaling-stroke" fill-rule="evenodd" d="M1129.57,757.633 L1123.14,764.678 L1117.25,768.602 L1111.37,774.49 L1106.79,782.339 L1102.36,789.012 L1100.81,797.744 L1104.41,803.908 L1108.52,810.586 L1114.17,817.264 L1119.03,824.308 L1123.22,828.913 L1126.15,834.356 L1130.75,841.054 L1134.94,846.915 L1138.71,854.032 L1142.9,860.311 L1146.24,865.754 L1148.09,870.855 L1148.09,877.733 L1142.9,882.081 L1136.62,886.267 L1130.75,885.011 L1124.06,880.825 L1118.61,877.894 L1113.17,875.801 L1108.15,872.871 L1101.45,867.428 L1094.33,865.754 L1085.96,862.823 L1078.01,860.311 L1070.89,858.218 L1062.1,854.869 L1055.82,854.032 L1048.7,851.939 L1042.84,850.264 L1034.47,849.008 L1028.19,847.752 L1022.33,848.171 L1016.88,848.171 L1009.35,847.752 L1003.07,847.752 L995.961,847.973 L989.302,849.453 L982.273,850.193 L977.093,851.673 L970.064,853.523 L962.294,856.112 L956.005,858.332 L949.715,860.552 L943.796,864.252 L937.136,867.212 L930.477,870.911 L924.927,874.981 L920.487,879.791 L917.158,885.71 L914.198,891.26 L911.978,897.179 L909.018,903.099 L907.908,908.278 L906.429,915.308 L904.187,921.646 L901.541,927.995 L898.367,933.286 L896.78,938.576 L894.134,943.867 L888.3,946.755 L887.074,955.338 L886.257,961.877 L883.804,968.416 L883.514,976.459 L882.985,983.866 L882.796,989.207 L883.194,996.529 L883.863,1003.83 L884.687,1011.12 L883.812,1018.39 L882.173,1025.54 L880.567,1032.69 L880.006,1039.98 L880.292,1047.3 L880.785,1054.61 L883.514,1060.58 L885.63,1066.4 L888.805,1070.1 L891.45,1073.81 L898.328,1077.51 L905.735,1079.63 L911.781,1081.97 L919.063,1082.8 L926.305,1083.95 L932.189,1084.39 L937.48,1082.8 L942.77,1080.69 L949.648,1079.1 L957.055,1084.92 L957.055,1098.15 L957.055,1105.02 L960.23,1110.84 L964.991,1115.08 L968.695,1117.72 L975.573,1115.08 L982.98,1110.84 L991.939,1108.6 L999.02,1106.69 L1006.05,1104.6 L1012.99,1102.24 L1019.92,1100.09 L1026.91,1098.34 L1033.8,1095.82 L1040.83,1093.77 L1048,1092.29 L1055.28,1091.62 L1062.6,1091.93 L1069.85,1092.96 L1077.05,1094.34 L1084.25,1095.73 L1091.53,1096.58 L1098.83,1097.2 L1105.72,1097.09 L1112.6,1096.03 L1118.42,1097.09 L1122.66,1098.67 L1127.42,1099.73 L1130.59,1102.38 L1138.3,1097.76 L1147.03,1098.27 L1153.19,1099.3 L1158.29,1099.65 L1162.85,1099.69 L1165.44,1094.78 L1167.51,1088.82 L1167.77,1083.91 L1162.59,1076.92 L1157.42,1070.97 L1152.25,1066.58 L1145.26,1063.21 L1138.02,1057.26 L1131.29,1051.83 L1125.86,1048.21 L1119.65,1042.26 L1116.28,1036.82 L1114.73,1030.61 L1119.97,1025.02 L1125.34,1021.04 L1130.25,1016.39 L1132.84,1011.47 L1135.17,1007.85 L1137.76,1005 L1140.34,1000.6 L1143.71,993.36 L1145.26,988.703 L1148.11,982.235 L1150.69,975.508 L1153.02,970.593 L1157.16,965.419 L1161.3,960.503 L1166.47,957.398 L1171.39,954.553 L1174.49,949.637 L1181.82,946.817 L1189,946.019 L1196.49,945.239 L1204.76,945.498 L1211.49,945.498 L1219.51,944.463 L1226.24,942.91 L1232.76,941.649 L1239.64,939.412 L1248.38,937.979 L1247.87,930.858 L1246.81,923.451 L1244.69,918.689 L1243.63,911.811 L1240.99,903.875 L1238.34,897.526 L1232.98,888.442 L1229.1,881.715 L1224.18,874.471 L1219.78,868.003 L1211.76,864.64 L1204.52,863.088 L1197.28,862.053 L1193.65,858.948 L1189.77,854.809 L1188.74,849.376 L1187.19,844.461 L1184.08,837.475 L1182.27,829.973 L1179.94,822.729 L1177.1,814.708 L1176.83,803.864 L1176.83,795.646 L1176.83,786.913 L1175.29,777.667 L1166.56,773.557 L1160.39,772.016 L1152.6,766.598 L1146.01,762.77 L1138.82,760.202 L1129.57,757.633"/>
</g>

<g fill="none" stroke="#000000" stroke-opacity="1" stroke-width="1" stroke-linecap="square" stroke-linejoin="bevel" transform="matrix(0.584403,0,0,0.584403,-453.583,-261.914)"
font-family="SimSun" font-size="9" font-weight="400" font-style="normal" 
>
</g>

<g fill="none" stroke="#000000" stroke-opacity="1" stroke-width="1" stroke-linecap="square" stroke-linejoin="bevel" transform="matrix(1,0,0,1,0,0)"
font-family="SimSun" font-size="9" font-weight="400" font-style="normal" 
>
</g>
</g>
</svg>
